<svg id="Layer_1" data-name="Layer 1" xmlns="http://www.w3.org/2000/svg" xmlns:xlink="http://www.w3.org/1999/xlink" viewBox="0 0 2063.14 386.71"><defs><style>.cls-1{fill:url(#linear-gradient);}.cls-2{fill:url(#Taheely);}.cls-3{fill:url(#Taheely-2);}.cls-4{fill:url(#Taheely-3);}.cls-5{fill:url(#Taheely-4);}.cls-6{fill:url(#Taheely-5);}.cls-7{fill:url(#Taheely-6);}.cls-8{fill:url(#Taheely-7);}.cls-9{fill:url(#Blue_Gradient);}.cls-10{fill:url(#Green_Gradient);}.cls-11{fill:url(#Taheely-8);}.cls-12{fill:url(#Blue_Gradient-2);}</style><linearGradient id="linear-gradient" x1="731.11" y1="315.57" x2="690.8" y2="362.6" gradientUnits="userSpaceOnUse"><stop offset="0" stop-color="#06d6a0"/><stop offset="1" stop-color="#06a95e"/></linearGradient><linearGradient id="Taheely" x1="316.43" y1="315.83" x2="1528.82" y2="-573.72" gradientUnits="userSpaceOnUse"><stop offset="0" stop-color="#e6e6e6"/><stop offset="0.5" stop-color="#fff"/><stop offset="1" stop-color="#e6e6e6"/></linearGradient><linearGradient id="Taheely-2" x1="497.64" y1="562.81" x2="1710.03" y2="-326.74" xlink:href="#Taheely"/><linearGradient id="Taheely-3" x1="592.24" y1="691.74" x2="1804.62" y2="-197.81" xlink:href="#Taheely"/><linearGradient id="Taheely-4" x1="680.55" y1="812.1" x2="1892.93" y2="-77.45" xlink:href="#Taheely"/><linearGradient id="Taheely-5" x1="761.98" y1="923.09" x2="1974.37" y2="33.54" xlink:href="#Taheely"/><linearGradient id="Taheely-6" x1="436.07" y1="478.89" x2="1648.46" y2="-410.66" xlink:href="#Taheely"/><linearGradient id="Taheely-7" x1="804.31" y1="980.78" x2="2016.7" y2="91.24" xlink:href="#Taheely"/><linearGradient id="Blue_Gradient" x1="1881.02" y1="140.71" x2="1966.98" y2="54.75" gradientUnits="userSpaceOnUse"><stop offset="0" stop-color="#118ab2"/><stop offset="1" stop-color="#1164b2"/></linearGradient><linearGradient id="Green_Gradient" x1="173.96" y1="119.85" x2="80.79" y2="265.56" xlink:href="#linear-gradient"/><linearGradient id="Taheely-8" x1="130.44" y1="261.11" x2="225.14" y2="166.41" xlink:href="#Taheely"/><linearGradient id="Blue_Gradient-2" x1="200.02" y1="281.68" x2="297.32" y2="148.07" xlink:href="#Blue_Gradient"/></defs><title>Logo</title><path class="cls-1" d="M767.93,361l-109.73-.1a8.46,8.46,0,0,1-7.33-12.66l54.75-95.62a8.55,8.55,0,0,1,14.84,0l54.82,95.72A8.46,8.46,0,0,1,767.93,361Z" transform="translate(-17.74 -18.82)"/><path class="cls-2" d="M606.06,132.78a8.43,8.43,0,0,0,8.44-8.43l-.42-46.83a8.6,8.6,0,0,0-8.6-8.52H384.32a8.4,8.4,0,0,0-8.4,8.31l-.42,46.81a8.46,8.46,0,0,0,8.45,8.46l65.56.06h9V354a8.65,8.65,0,0,0,8.63,8.65l53.92,0a8.43,8.43,0,0,0,8.45-8.44V132.71h9Z" transform="translate(-17.74 -18.82)"/><path class="cls-3" d="M1035.09,363.24l54,0a8.42,8.42,0,0,0,8.43-8.42V77.75a8.47,8.47,0,0,0-8.45-8.47l-54.12,0a8.42,8.42,0,0,0-8.43,8.42V183.23h-9l-95-.09h-9V77.66A8.55,8.55,0,0,0,905,69.11l-53.79,0a8.61,8.61,0,0,0-8.62,8.64L843,236.64l54.8,97.77C902,342,913.5,339,913.5,330.31V247.12h9l95,.09h9V354.64A8.6,8.6,0,0,0,1035.09,363.24Z" transform="translate(-17.74 -18.82)"/><path class="cls-4" d="M1201.5,142.42v-9h9l130.52.12a8.45,8.45,0,0,0,8.47-8.45V78a8.46,8.46,0,0,0-8.45-8.46l-130.56-.12L1139,69.36a8.52,8.52,0,0,0-8.53,8.52v277a8.5,8.5,0,0,0,8.48,8.49l71.53.07,130.52.12a8.45,8.45,0,0,0,8.47-8.45V307a8.46,8.46,0,0,0-8.45-8.46l-130.56-.12h-9v-51h9l130.52.12a8.45,8.45,0,0,0,8.47-8.45V192a8.46,8.46,0,0,0-8.45-8.46l-130.56-.12h-9v-41Z" transform="translate(-17.74 -18.82)"/><path class="cls-5" d="M1601.5,355.26V307.35a8.55,8.55,0,0,0-8.53-8.55l-130.48-.12h-9v-51h9l130.44.12a8.54,8.54,0,0,0,8.55-8.54V192.35a8.55,8.55,0,0,0-8.53-8.55l-130.48-.12h-9v-50h9l130.44.12a8.54,8.54,0,0,0,8.55-8.54V78.35A8.55,8.55,0,0,0,1593,69.8l-130.48-.12-71.37-.07a8.6,8.6,0,0,0-8.62,8.6V355a8.61,8.61,0,0,0,8.6,8.61l71.41.07,130.44.12A8.54,8.54,0,0,0,1601.5,355.26Z" transform="translate(-17.74 -18.82)"/><path class="cls-6" d="M1813.27,359.68l27.23-47.55v-4.52a8.57,8.57,0,0,0-8.55-8.56l-118.46-.12h-9V78.4a8.48,8.48,0,0,0-8.47-8.48l-53,0a8.47,8.47,0,0,0-8.49,8.48V355.28a8.59,8.59,0,0,0,8.58,8.59l70.43.06,92.27.09A8.63,8.63,0,0,0,1813.27,359.68Z" transform="translate(-17.74 -18.82)"/><path class="cls-7" d="M706.08,213.11a8.55,8.55,0,0,1,14.84,0l.39.68L801.9,354.52a16.87,16.87,0,0,0,14.65,8.5l46.31.05a8.42,8.42,0,0,0,7.36-12.53L720.4,82.66a8.43,8.43,0,0,0-14.72,0L557,350a8.6,8.6,0,0,0,7.5,12.77l46,0a16.86,16.86,0,0,0,14.66-8.48l80.49-140.55Z" transform="translate(-17.74 -18.82)"/><path class="cls-8" d="M2021.63,70.23a8.41,8.41,0,0,0-7.29,4.22l-77.49,135.33a14.23,14.23,0,0,1-24.7,0L1834.57,74.32a8.48,8.48,0,0,0-7.36-4.27l-50.54,0a8.59,8.59,0,0,0-7.47,12.86l116.12,202.76,1.49,2.59,2.56,4.48-2.56,4.47-31.06,54.23a8.48,8.48,0,0,0,7.35,12.69l50.71.05a8.45,8.45,0,0,0,7.34-4.25l158.6-277a8.44,8.44,0,0,0-7.31-12.64Z" transform="translate(-17.74 -18.82)"/><path class="cls-9" d="M1977.78,69.1a8.57,8.57,0,0,1,7.43,12.84l-53.83,94a8.45,8.45,0,0,1-14.68,0l-53.89-94.11A8.58,8.58,0,0,1,1870.27,69Z" transform="translate(-17.74 -18.82)"/><path class="cls-10" d="M92.24,203.61l25.85,45.14-83.79-.08A16.53,16.53,0,0,1,20,223.92L135.29,22.48a7.28,7.28,0,0,1,12.63,0L237.33,178.6l-130.5-.12A16.79,16.79,0,0,0,92.24,203.61Z" transform="translate(-17.74 -18.82)"/><path class="cls-11" d="M249,248.89l-130.93-.14L92.24,203.61a16.79,16.79,0,0,1,14.59-25.13l130.5.12,26.07,45.52A16.56,16.56,0,0,1,249,248.89Z" transform="translate(-17.74 -18.82)"/><path class="cls-12" d="M331.75,203.8,218.33,401.88a7.23,7.23,0,0,1-12.56,0L118.09,248.75l130.93.14a16.56,16.56,0,0,0,14.38-24.77L237.33,178.6l79.88.08A16.77,16.77,0,0,1,331.75,203.8Z" transform="translate(-17.74 -18.82)"/></svg>